<svg id="Layer_1" data-name="Layer 1" xmlns="http://www.w3.org/2000/svg" viewBox="0 0 1219 740.04"><defs><style>.cls-1{fill:#fff;}</style></defs><title>BG_SVG_WHITE</title><path class="cls-1" d="M831.31,703.41c99-134,73.35-460.16,73.35-460.16-171.2,39.39-258.14-45-269.86-57.42,0,0-.24-1.25-.69-.75-.46-.5-.7.75-.7.75-11.71,12.46-98.59,96.89-269.81,57.64,0,0-26.17,326.82,73.68,460.1C543.93,845.93,633.91,889,634.36,888.57,634.81,889,725.54,846.67,831.31,703.41ZM634.23,824.09c-.37.3-74.28-41.45-162-156.29-82.1-107.51-60.58-371.15-60.58-371.15,140.79,31.66,212.22-36.45,221.85-46.5,0,0,.2-1,.57-.61.38-.4.57.61.57.61,9.64,10,81.12,78.09,221.89,46.32,0,0,21.05,263.08-60.32,371.2C709.27,783.24,634.6,824.39,634.23,824.09Z" transform="translate(-26 -184.96)"/><path class="cls-1" d="M783,469l-100.57-.37-9.42,0q.12-39.18.25-78.35l.12-39.31c0-4.37-3.43-8.09-7.52-8.1l-62.51-.23c-4.08,0-7.56,3.67-7.57,8.05q-.18,53.79-.35,107.58l0,10.07-73.24-.27-36.75-.13c-4.09,0-7.57,3.67-7.58,8.05l-.21,66.86a7.66,7.66,0,0,0,2.15,5.66,6.75,6.75,0,0,0,5.37,2.45l100.57.36,9.42,0q-.12,39.17-.25,78.35l-.12,39.3c0,4.37,3.43,8.09,7.52,8.11l62.51.23a6.76,6.76,0,0,0,5.29-2.3,7.69,7.69,0,0,0,2.29-5.75q.17-53.79.34-107.58l0-10.08,73.24.27,36.75.13c4.08,0,7.57-3.67,7.58-8l.21-66.86C790.54,472.76,787.09,469,783,469Z" transform="translate(-26 -184.96)"/><ellipse class="cls-1" cx="1108.64" cy="212.89" rx="110.36" ry="118.05"/><path class="cls-1" d="M1036.41,566c-6.32-56-84.54-316.55-84.54-316.55C1000.76,730,682.44,925,682.44,925,1166,896.91,1245,514.51,1245,514.51S1040.83,605.18,1036.41,566Z" transform="translate(-26 -184.96)"/><ellipse class="cls-1" cx="110.36" cy="212.89" rx="110.36" ry="118.05"/><path class="cls-1" d="M588.56,925s-317-153.62-267.21-675.55c0,0-80.44,260.53-86.76,316.55C230.17,605.18,26,514.51,26,514.51S105,896.91,588.56,925Z" transform="translate(-26 -184.96)"/></svg>